{"accessors" : [{"bufferView" : 0, "byteOffset" : 0, "componentType" : 5123, "count" : 6786, "type" : "SCALAR", "max" : [6785], "min" : [0]}, {"bufferView" : 1, "byteOffset" : 0, "componentType" : 5126, "count" : 6786, "type" : "VEC3", "max" : [2.008512020111084, 3.447319507598877, 0.7601150274276733], "min" : [-2.008512020111084, -9.147918701171875, -9.562773704528809], "name" : "POSITION"}, {"bufferView" : 1, "byteOffset" : 12, "componentType" : 5126, "count" : 6786, "type" : "VEC3", "max" : [0.9996410608291626, 0.9958695769309998, 0.9994384050369263], "min" : [-0.9996410608291626, -0.9994900226593018, -0.9999563694000244], "name" : "NORMAL"}, {"bufferView" : 1, "byteOffset" : 24, "componentType" : 5126, "count" : 6786, "type" : "VEC2", "max" : [0.9671489596366882, -0.0018145221984013915], "min" : [0.0012331408215686679, -0.9776766896247864], "name" : "TEXCOORD_0"}], "asset" : {"generator" : "Aspose.3D 22.1", "version" : "2.0"}, "buffers" : [{"uri" : "data:application/octet-stream;base64,", "byteLength" : 230732}], "bufferViews" : [{"buffer" : 0, "byteOffset" : 0, "byteLength" : 13572, "target" : 34963}, {"buffer" : 0, "byteOffset" : 13576, "byteLength" : 217152, "byteStride" : 32, "target" : 34962}], "materials" : [{"name" : "", "pbrMetallicRoughness" : {"baseColorFactor" : [0.5882353186607361, 0.5882353186607361, 0.5882353186607361, 1], "metallicFactor" : 0, "roughnessFactor" : 0}, "emissiveFactor" : [0, 0, 0], "alphaMode" : "OPAQUE", "doubleSided" : false}], "meshes" : [{"primitives" : [{"attributes" : {"POSITION" : 1, "NORMAL" : 2, "TEXCOORD_0" : 3}, "indices" : 0, "material" : 0, "mode" : 4}], "name" : ""}], "nodes" : [{"matrix" : [0.36936558418273924, 0, 0, 0, 0, 8.201563521275973E-17, -0.36936558418273924, 0, 0, 0.36936558418273924, 8.201563521275973E-17, 0, 2.9932841658592224E-06, 3.5499290527343748, -0.9800832969665527, 1], "mesh" : 0, "name" : "Camel_low"}], "scene" : 0, "scenes" : [{"nodes" : [0]}]}